classDiagram
IFactorsFactoryGameInstance --> NFactorsFactoryClient
NFactorsFactoryClient *-- FactorArray
FactorArray <|.. Factor1
FactorArray <|.. Factor2
FactorArray <|.. Factor3
FactorArray <|.. Factor4
FactorArray <|.. Factor5

class Factor1 {
   <<For Action>>
}
class Factor2 {
   <<For Dialog>>
}
class Factor3 {
   <<For Alignment BENEVOLENT>>
}
class Factor4 {
   <<For Alignment EVIL>>
}
class Factor5 {
   <<For Alignment NEUTRAL>>
}

class IFactorsFactoryGameInstance {
   <<interface>> <<public>>
    +GetFactorsFactoryClient() NPointSystemClient
}

class NFactorsFactoryClient {
   <<public>>
    +CreateFactor(FString Name) void
    +GetFactor(TArray&lt;FString&gt; Names) TArray&lt;FactorState&gt;
    +AddFactor(TArray&lt;FString&gt; Names, Factor) void
}
